<?xml version="1.0" standalone="no"?>
<!DOCTYPE svg PUBLIC "-//W3C//DTD SVG 20010904//EN"
 "http://www.w3.org/TR/2001/REC-SVG-20010904/DTD/svg10.dtd">
<svg version="1.0" xmlns="http://www.w3.org/2000/svg"
 width="2547.000000pt" height="2547.000000pt" viewBox="0 0 2547.000000 2547.000000"
 preserveAspectRatio="xMidYMid meet">
<metadata>
Created by potrace 1.11, written by Peter Selinger 2001-2013
</metadata>
<g transform="translate(0.000000,2547.000000) scale(0.100000,-0.100000)"
fill="#000000" stroke="none">
<path d="M11598 25285 c-1 -1 -68 -6 -148 -10 -80 -3 -161 -8 -180 -10 -19 -2
-82 -7 -139 -10 -57 -4 -112 -8 -122 -10 -10 -2 -51 -6 -91 -9 -40 -4 -82 -8
-93 -10 -11 -2 -47 -7 -80 -10 -106 -13 -191 -25 -230 -32 -11 -2 -40 -7 -65
-9 -25 -3 -53 -8 -63 -11 -10 -3 -30 -7 -45 -9 -15 -2 -52 -9 -82 -15 -30 -6
-66 -13 -80 -16 -429 -78 -714 -198 -904 -382 -66 -63 -146 -165 -184 -232
-30 -54 -78 -172 -86 -214 -32 -152 -35 -179 -31 -301 4 -150 8 -180 40 -291
90 -317 286 -548 579 -684 161 -75 283 -100 466 -95 169 4 191 9 680 149 146
42 274 78 285 80 11 2 47 11 80 20 50 13 261 59 330 72 11 2 40 8 65 13 73 15
153 30 190 36 19 3 58 10 85 15 28 5 70 12 95 15 25 4 83 13 130 20 47 8 108
17 135 20 28 3 65 8 83 11 81 11 101 13 157 19 33 3 74 8 90 10 41 5 144 15
330 30 39 3 93 7 120 10 53 5 207 13 365 20 612 26 1241 26 1575 0 33 -2 98
-7 145 -10 113 -8 205 -15 260 -21 25 -2 74 -7 110 -9 36 -3 79 -7 95 -9 17
-2 59 -7 95 -11 36 -3 76 -8 90 -10 14 -2 79 -11 145 -19 66 -9 147 -21 180
-26 33 -6 71 -12 85 -14 68 -11 264 -50 337 -66 44 -11 96 -22 114 -25 18 -3
35 -8 39 -10 3 -2 19 -6 34 -9 15 -3 53 -12 84 -21 31 -10 64 -19 72 -20 121
-26 706 -213 795 -255 11 -5 52 -20 90 -34 126 -44 574 -226 731 -296 27 -12
63 -28 79 -35 96 -42 314 -144 400 -187 129 -65 327 -169 340 -179 6 -4 96
-44 200 -89 105 -45 233 -104 285 -133 177 -95 170 -92 245 -92 59 0 81 5 136
32 122 60 177 162 148 273 -10 40 -39 72 -258 290 -135 135 -295 285 -356 333
-141 113 -366 264 -648 434 -197 119 -323 191 -522 298 -161 87 -181 98 -192
108 -7 5 -13 7 -13 4 0 -3 -28 10 -62 29 -73 41 -634 322 -753 376 -44 20
-134 62 -200 93 -66 31 -136 64 -155 72 -19 9 -62 28 -95 43 -87 40 -148 67
-250 112 -49 21 -99 43 -110 48 -64 29 -144 62 -250 105 -66 26 -133 53 -150
60 -177 74 -818 282 -985 320 -8 1 -35 9 -60 16 -25 7 -49 13 -55 15 -5 1 -46
11 -90 22 -72 19 -238 57 -290 68 -30 6 -115 24 -160 34 -49 12 -236 47 -290
55 -22 3 -53 8 -70 11 -16 3 -41 7 -55 9 -14 2 -70 11 -125 20 -55 8 -118 18
-140 20 -22 3 -56 7 -75 10 -19 2 -53 7 -75 9 -22 3 -58 7 -80 10 -22 3 -69 8
-105 12 -36 4 -76 8 -90 10 -14 2 -61 6 -105 9 -44 3 -98 8 -120 10 -22 2 -89
7 -150 11 -60 4 -130 8 -155 11 -54 5 -1297 13 -1302 8z"/>
<path d="M5847 22353 c-10 -3 -125 -59 -255 -125 -233 -119 -439 -236 -537
-306 -54 -39 -263 -200 -281 -217 -6 -5 -30 -26 -54 -45 -24 -19 -60 -48 -79
-65 -20 -16 -47 -40 -61 -51 -102 -86 -240 -209 -359 -319 -101 -93 -705 -697
-836 -836 -185 -194 -329 -349 -425 -454 -35 -38 -91 -99 -124 -135 -367 -396
-669 -777 -953 -1205 -124 -187 -165 -250 -277 -433 -29 -47 -107 -180 -151
-257 -12 -22 -39 -69 -60 -105 -98 -171 -175 -311 -256 -470 -50 -96 -76 -152
-169 -354 -39 -87 -119 -278 -171 -409 -22 -56 -44 -111 -49 -122 -5 -11 -37
-96 -71 -190 -33 -93 -65 -179 -70 -190 -13 -31 -142 -424 -187 -570 -83 -270
-133 -445 -187 -665 -25 -102 -48 -197 -50 -212 -3 -14 -14 -64 -25 -110 -10
-46 -22 -99 -25 -118 -3 -19 -14 -81 -25 -137 -20 -105 -54 -318 -65 -408 -4
-27 -8 -60 -10 -72 -2 -12 -7 -57 -10 -100 -4 -43 -9 -81 -12 -86 -12 -20 -11
-368 1 -442 62 -383 282 -702 581 -845 157 -75 278 -100 450 -95 143 4 172 8
292 40 220 60 403 165 553 316 121 123 213 287 235 420 3 19 8 45 10 59 3 14
7 120 10 235 5 205 11 349 20 510 10 168 16 241 20 275 2 19 7 73 11 120 3 47
8 92 9 100 1 8 6 49 10 90 4 41 9 82 10 92 2 9 6 46 9 83 4 37 8 70 10 74 2 3
7 38 11 76 3 39 8 79 11 90 6 32 14 77 20 120 2 22 12 78 20 125 8 47 17 101
20 120 8 52 69 348 99 480 14 63 28 126 31 140 3 14 10 43 16 65 5 22 11 47
13 55 9 46 90 346 105 390 5 14 21 66 35 115 220 741 471 1437 686 1900 18 39
33 72 34 75 15 44 240 495 284 568 17 29 31 55 31 58 0 2 23 41 50 85 28 44
50 82 50 85 0 6 116 186 219 339 87 130 416 575 458 620 10 11 34 40 53 65 42
56 339 411 354 425 6 6 38 41 71 80 94 110 133 153 265 295 54 58 134 142 177
186 43 45 123 130 178 190 133 145 459 472 512 514 97 77 126 212 71 330 -44
97 -119 151 -205 149 -26 -1 -56 -3 -66 -6z"/>
<path d="M22960 19893 c-188 -19 -301 -46 -428 -104 -126 -57 -255 -158 -347
-274 -22 -27 -42 -52 -45 -55 -13 -12 -71 -111 -103 -175 -32 -64 -63 -152
-83 -230 -4 -16 -9 -37 -11 -45 -3 -8 -6 -85 -8 -170 -3 -123 0 -172 15 -240
43 -197 94 -300 290 -585 242 -351 422 -636 538 -850 123 -226 273 -529 375
-755 16 -36 40 -90 54 -120 37 -82 193 -457 193 -465 0 -4 7 -21 15 -38 8 -18
22 -52 31 -77 9 -25 24 -65 34 -90 21 -56 27 -73 50 -135 10 -27 26 -70 35
-95 76 -199 259 -745 336 -1005 58 -194 158 -581 199 -775 32 -151 69 -332 75
-370 3 -19 10 -57 15 -85 16 -77 17 -87 24 -135 3 -25 8 -54 10 -66 2 -12 7
-45 11 -74 4 -29 8 -61 10 -71 2 -10 6 -44 10 -76 3 -32 8 -69 10 -83 2 -14 6
-61 10 -105 3 -44 8 -96 10 -115 4 -32 11 -139 21 -310 5 -95 5 -659 0 -770
-14 -279 -19 -361 -30 -500 -3 -36 -8 -99 -11 -140 -4 -41 -8 -86 -10 -100 -2
-14 -7 -63 -10 -110 -4 -47 -9 -92 -10 -101 -2 -8 -6 -48 -10 -88 -3 -40 -8
-80 -10 -89 -1 -9 -6 -44 -9 -77 -4 -33 -13 -103 -21 -155 -14 -96 -21 -146
-30 -220 -12 -95 -32 -256 -40 -325 -11 -89 -33 -249 -39 -282 -3 -12 -8 -43
-12 -70 -5 -26 -8 -50 -9 -53 -1 -3 -4 -18 -8 -35 -4 -16 -8 -41 -11 -55 -2
-14 -9 -44 -15 -67 -13 -46 -9 -112 7 -154 17 -43 80 -97 135 -115 102 -34
237 -5 304 64 69 71 349 662 408 862 82 278 198 728 221 860 3 14 16 81 30
150 14 69 27 140 30 159 3 18 8 43 10 55 2 11 8 46 14 76 5 30 11 66 14 80 4
26 18 113 22 140 1 8 4 29 8 45 4 26 19 120 31 195 8 54 18 116 20 131 2 9 6
40 10 70 3 30 8 61 10 69 2 8 7 38 10 65 4 28 8 65 11 83 2 17 6 49 9 70 2 20
9 69 14 107 6 39 13 93 16 120 3 28 10 84 15 125 5 41 12 100 15 130 3 30 8
71 10 90 2 19 7 64 10 100 4 36 8 76 10 90 3 23 11 103 20 210 2 25 6 72 9
105 3 33 9 103 13 155 18 217 8 1252 -13 1454 -3 28 -7 77 -9 109 -2 33 -6 80
-9 106 -3 25 -13 107 -21 181 -8 75 -17 145 -19 155 -2 11 -7 45 -10 76 -4 31
-9 67 -11 79 -2 12 -7 41 -9 64 -3 22 -8 52 -11 66 -2 13 -7 42 -10 65 -4 22
-15 90 -26 150 -11 61 -22 123 -24 139 -2 15 -7 35 -9 45 -3 9 -8 30 -10 46
-5 29 -23 119 -32 160 -9 43 -33 153 -39 181 -3 12 -19 80 -36 150 -17 71 -33
137 -35 147 -19 83 -100 378 -148 542 -107 363 -307 929 -411 1161 -8 16 -29
66 -48 110 -118 275 -336 713 -454 912 -23 41 -43 75 -43 77 0 11 -178 297
-208 334 -74 92 -176 171 -309 239 -169 86 -398 139 -543 125z"/>
<path d="M13018 18905 c-2 -2 -60 -6 -130 -9 -70 -4 -137 -9 -150 -11 -13 -2
-52 -6 -88 -9 -95 -9 -227 -25 -290 -36 -30 -5 -73 -12 -95 -16 -22 -3 -71
-12 -110 -20 -38 -8 -86 -17 -105 -20 -48 -8 -369 -88 -455 -114 -38 -12 -74
-22 -80 -24 -35 -8 -262 -87 -380 -131 -380 -144 -776 -340 -1116 -555 -63
-39 -123 -77 -134 -83 -11 -7 -22 -14 -25 -17 -3 -3 -25 -18 -50 -35 -25 -16
-64 -43 -86 -60 -23 -16 -52 -37 -64 -45 -96 -65 -347 -263 -480 -379 -291
-255 -623 -602 -844 -881 -374 -475 -685 -997 -901 -1515 -20 -49 -43 -103
-50 -120 -7 -16 -27 -70 -45 -120 -18 -49 -41 -112 -51 -140 -41 -107 -147
-471 -174 -593 -19 -85 -66 -323 -69 -347 -3 -16 -11 -73 -20 -125 -15 -91
-21 -141 -32 -240 -2 -25 -7 -64 -9 -86 -29 -239 -34 -736 -10 -1029 3 -33 8
-89 10 -125 3 -36 8 -83 10 -105 18 -156 24 -202 30 -235 3 -14 7 -41 9 -60 5
-39 15 -102 22 -134 2 -11 7 -34 9 -51 3 -16 12 -61 20 -100 8 -38 17 -79 19
-90 3 -21 4 -27 36 -155 63 -253 155 -546 244 -775 271 -694 666 -1340 1165
-1905 130 -148 450 -462 609 -598 246 -211 516 -409 777 -571 55 -34 107 -66
115 -71 8 -5 80 -46 160 -90 410 -230 833 -404 1355 -559 71 -21 363 -91 400
-96 11 -2 54 -10 95 -18 82 -17 173 -33 235 -42 22 -4 51 -8 65 -10 146 -22
339 -42 502 -52 236 -15 787 -8 973 12 22 2 69 7 105 10 36 3 72 8 80 10 8 2
42 6 75 10 33 3 89 11 125 16 36 6 79 13 95 16 17 2 86 16 155 29 69 14 136
27 150 30 14 3 50 11 80 19 30 8 66 16 80 19 14 3 34 7 45 10 11 3 45 12 75
20 248 65 666 211 880 308 25 11 74 34 110 50 519 235 1025 564 1505 977 116
100 459 440 560 555 122 139 130 149 227 271 180 229 366 499 497 725 385 661
631 1323 770 2070 11 58 23 125 26 150 3 25 8 56 10 70 6 37 16 109 21 155 10
98 12 624 3 675 -24 125 -97 288 -165 365 -14 17 -36 41 -48 55 -89 106 -276
205 -441 235 -22 4 -238 9 -480 11 -1721 12 -3629 29 -3662 33 -7 0 -13 6 -13
12 0 13 -94 157 -139 214 -289 361 -745 546 -1210 492 -107 -13 -200 -37 -348
-91 -79 -29 -238 -123 -322 -190 -74 -59 -223 -222 -275 -300 -50 -75 -144
-257 -151 -291 -1 -5 -11 -41 -22 -80 -28 -93 -32 -112 -44 -203 -14 -112 -11
-311 6 -392 3 -14 8 -40 11 -59 30 -182 171 -459 307 -609 140 -153 294 -264
477 -343 81 -35 200 -72 265 -83 17 -3 48 -9 70 -13 53 -9 295 -10 371 0 285
35 575 182 782 397 50 51 142 167 172 216 13 21 17 21 344 18 182 -1 660 -5
1061 -9 402 -3 926 -8 1165 -10 239 -2 565 -5 723 -6 l288 -1 -6 -42 c-8 -52
-13 -83 -31 -176 -8 -41 -17 -88 -20 -105 -3 -16 -12 -57 -20 -90 -8 -33 -17
-71 -20 -85 -3 -14 -9 -38 -14 -55 -5 -16 -18 -64 -30 -105 -80 -280 -187
-556 -326 -835 -57 -115 -108 -217 -113 -225 -5 -8 -40 -67 -77 -130 -112
-190 -316 -484 -410 -590 -12 -14 -63 -73 -114 -132 -144 -169 -331 -354 -565
-557 -130 -113 -457 -348 -592 -426 -10 -6 -49 -29 -88 -52 -38 -23 -90 -53
-115 -67 -67 -39 -381 -193 -410 -201 -14 -4 -29 -11 -35 -15 -39 -31 -506
-194 -673 -236 -9 -2 -53 -13 -97 -24 -145 -37 -329 -73 -485 -95 -25 -3 -56
-8 -70 -10 -58 -9 -191 -22 -315 -31 -187 -15 -730 -8 -846 11 -13 2 -55 6
-93 10 -38 4 -79 9 -90 10 -12 2 -59 9 -106 15 -112 15 -347 62 -490 99 -420
107 -804 256 -1160 452 -52 29 -106 58 -120 65 -51 27 -243 151 -357 231 -129
90 -314 235 -432 339 -96 85 -360 350 -426 428 -27 32 -55 64 -60 70 -23 23
-182 227 -226 287 -59 82 -154 224 -209 314 -44 71 -49 80 -115 195 -68 120
-202 403 -268 570 -173 438 -295 946 -332 1385 -3 33 -8 96 -12 140 -15 166
-7 773 12 875 1 8 6 47 10 85 4 39 8 77 10 85 1 8 6 38 9 65 11 75 17 115 22
139 2 11 7 35 9 51 32 180 98 439 163 640 38 115 51 150 129 350 37 96 195
423 261 540 267 481 683 991 1092 1340 63 54 117 101 120 105 21 24 265 202
410 297 80 53 112 73 185 118 129 80 440 239 585 300 36 15 79 33 95 40 113
48 293 111 480 168 59 18 239 65 275 71 14 3 25 5 25 6 0 2 8 3 110 24 44 8
91 18 105 21 14 3 45 8 70 11 25 3 52 7 60 9 24 6 137 21 230 30 30 3 69 8 85
10 165 22 730 23 900 1 17 -3 62 -7 100 -11 39 -4 77 -9 85 -10 8 -1 40 -6 70
-10 66 -8 248 -40 345 -61 39 -8 79 -16 90 -19 141 -28 554 -156 680 -210 17
-7 53 -21 80 -32 102 -41 165 -70 345 -160 609 -303 1123 -707 1589 -1248 100
-116 209 -262 304 -406 110 -168 206 -247 372 -305 69 -24 95 -28 195 -28 84
-1 131 4 175 18 233 71 395 241 450 474 14 56 17 98 12 190 -3 64 -8 131 -12
147 -11 53 -60 148 -130 250 -63 92 -280 383 -294 395 -4 3 -30 34 -60 70
-163 199 -432 478 -626 651 -33 29 -66 59 -73 66 -26 26 -218 181 -332 268
-167 128 -490 344 -645 431 -11 6 -69 39 -130 73 -340 191 -730 357 -1178 500
-154 50 -501 136 -662 165 -70 13 -142 26 -175 31 -67 11 -85 14 -130 20 -25
3 -56 8 -70 10 -14 2 -53 7 -87 11 -35 3 -75 8 -90 10 -16 1 -64 6 -108 9 -44
3 -109 8 -145 11 -65 5 -638 13 -642 9z"/>
<path d="M1527 8895 c-84 -23 -144 -74 -172 -148 -17 -45 -17 -127 0 -218 3
-13 7 -35 9 -49 3 -14 8 -43 11 -65 7 -48 14 -91 20 -125 3 -14 7 -41 10 -60
50 -307 144 -605 338 -1070 150 -359 435 -942 679 -1390 75 -138 101 -185 118
-215 9 -16 32 -57 50 -90 18 -33 78 -138 132 -233 55 -95 111 -194 125 -220
49 -88 260 -437 319 -527 32 -49 61 -94 64 -100 3 -5 19 -30 35 -54 17 -24 35
-51 40 -60 6 -9 12 -18 15 -21 3 -3 37 -50 74 -104 38 -55 72 -104 77 -110 5
-6 53 -69 106 -141 80 -109 155 -205 220 -285 7 -8 38 -46 69 -85 337 -415
827 -917 1278 -1310 38 -33 74 -65 80 -70 51 -48 323 -268 516 -418 50 -39
259 -193 335 -247 50 -35 113 -80 140 -100 78 -57 383 -260 390 -260 3 0 11
-5 18 -10 32 -27 373 -235 482 -295 39 -21 105 -57 147 -82 275 -155 822 -403
958 -434 121 -28 162 -33 286 -32 444 2 845 265 993 650 53 136 66 226 65 428
-1 129 -5 178 -24 255 -73 308 -243 543 -490 678 -30 16 -100 45 -155 65 -437
155 -579 209 -898 341 -360 150 -911 424 -1187 590 -47 28 -93 56 -102 61
-179 102 -748 483 -1118 749 -19 14 -66 48 -105 75 -38 28 -74 54 -80 58 -5 5
-46 35 -90 68 -82 60 -346 265 -355 275 -3 3 -30 25 -60 50 -87 71 -98 81
-184 155 -169 147 -220 193 -349 315 -219 208 -447 445 -626 650 -90 102 -267
316 -292 352 -13 18 -26 35 -29 38 -3 3 -21 25 -40 50 -19 25 -38 50 -43 55
-19 23 -145 197 -172 237 -17 23 -32 45 -35 48 -16 14 -223 331 -347 530 -135
217 -353 591 -353 605 0 4 -8 19 -18 33 -11 15 -52 90 -92 167 -40 77 -102
192 -138 255 -36 63 -74 131 -85 150 -54 97 -190 366 -227 452 -45 102 -81
148 -141 179 -48 24 -131 30 -192 14z"/>
<path d="M22047 5914 c-1 -1 -33 -4 -71 -8 -38 -4 -71 -8 -75 -10 -3 -2 -24
-7 -46 -10 -98 -15 -252 -80 -361 -152 -72 -47 -216 -189 -270 -264 -21 -30
-41 -57 -44 -60 -3 -3 -27 -34 -54 -70 -55 -72 -268 -342 -276 -350 -3 -3 -22
-26 -43 -52 -21 -26 -43 -53 -50 -60 -7 -7 -22 -26 -35 -42 -58 -76 -317 -362
-389 -431 -72 -68 -172 -168 -272 -270 -75 -78 -205 -197 -335 -308 -27 -23
-56 -49 -65 -58 -17 -17 -240 -202 -311 -259 -24 -19 -48 -40 -54 -46 -15 -14
-433 -339 -586 -455 -414 -313 -852 -611 -1191 -809 -240 -140 -348 -198 -604
-324 -284 -140 -305 -150 -490 -226 -83 -34 -163 -67 -180 -75 -16 -7 -52 -21
-80 -30 -27 -10 -56 -23 -62 -28 -7 -5 -13 -7 -13 -3 0 4 -13 0 -28 -8 -70
-36 -778 -259 -895 -282 -10 -2 -27 -6 -37 -9 -10 -3 -27 -8 -37 -10 -10 -2
-114 -26 -231 -54 -117 -28 -224 -53 -237 -55 -14 -3 -33 -7 -43 -10 -9 -3
-29 -8 -44 -11 -37 -7 -68 -13 -153 -31 -38 -8 -86 -17 -105 -20 -19 -3 -43
-7 -52 -10 -10 -3 -28 -7 -40 -9 -13 -2 -77 -13 -143 -24 -66 -12 -131 -23
-145 -26 -14 -3 -38 -7 -55 -10 -16 -3 -52 -10 -80 -15 -89 -18 -100 -20 -125
-25 -14 -3 -36 -7 -50 -10 -14 -3 -74 -14 -135 -25 -60 -11 -119 -22 -130 -24
-21 -4 -94 -15 -135 -21 -14 -2 -47 -6 -75 -9 -27 -3 -75 -8 -105 -11 -91 -10
-132 -27 -177 -71 -52 -53 -75 -123 -67 -203 14 -137 103 -230 235 -246 24 -3
55 -7 69 -10 14 -3 45 -8 70 -11 25 -3 54 -8 65 -10 11 -2 43 -7 70 -10 28 -3
53 -7 56 -9 3 -2 39 -7 80 -11 41 -3 77 -8 80 -10 39 -23 689 -23 912 1 23 2
76 7 117 10 153 12 230 20 390 40 25 3 61 8 80 10 19 3 100 14 180 25 80 11
163 23 185 26 22 2 53 7 68 10 16 3 38 7 50 9 37 4 110 15 167 25 30 5 71 12
90 15 28 5 169 29 275 49 11 2 36 6 55 9 82 14 96 17 120 22 14 3 41 8 60 11
168 27 810 166 1045 225 88 23 167 42 176 44 36 7 404 118 529 159 995 326
1935 792 2853 1415 162 110 501 353 560 401 7 5 95 76 197 156 170 135 332
271 420 351 19 17 46 41 60 53 121 105 446 422 575 562 127 137 143 155 216
239 117 136 119 138 164 208 68 106 120 256 139 401 7 50 8 211 2 250 -2 14
-7 50 -11 80 -27 204 -137 427 -285 577 -166 169 -426 288 -675 308 -117 9
-155 12 -158 9z"/>
</g>
</svg>
